<svg width="289" height="45" viewBox="0 0 289 45" fill="none" xmlns="http://www.w3.org/2000/svg">
<rect width="45" height="45" rx="22.5" fill="#556B2F"/>
<g clip-path="url(#clip0_31_3243)">
<path d="M30.8333 21.4583V29.7917C30.8333 32.6635 28.4969 35 25.625 35H15.2083C12.3365 35 10 32.6635 10 29.7917V19.375C10 16.5031 12.3365 14.1667 15.2083 14.1667H23.5417C24.1167 14.1667 24.5833 14.6333 24.5833 15.2083C24.5833 15.7833 24.1167 16.25 23.5417 16.25H15.2083C13.4854 16.25 12.0833 17.6521 12.0833 19.375V29.7917C12.0833 31.5146 13.4854 32.9167 15.2083 32.9167H25.625C27.3479 32.9167 28.75 31.5146 28.75 29.7917V21.4583C28.75 20.8833 29.2167 20.4167 29.7917 20.4167C30.3667 20.4167 30.8333 20.8833 30.8333 21.4583ZM31.875 10H24.5833C24.0083 10 23.5417 10.4667 23.5417 11.0417C23.5417 11.6167 24.0083 12.0833 24.5833 12.0833H31.4438L18.6385 24.8885C18.2312 25.2958 18.2312 25.9542 18.6385 26.3615C18.8417 26.5646 19.1083 26.6667 19.375 26.6667C19.6417 26.6667 19.9083 26.5646 20.1115 26.3615L32.9167 13.5562V20.4167C32.9167 20.9917 33.3833 21.4583 33.9583 21.4583C34.5333 21.4583 35 20.9917 35 20.4167V13.125C35 11.4021 33.5979 10 31.875 10Z" fill="white"/>
</g>
<path d="M56.92 31.5V14.868H68.152V18.012H60.664V21.276H67.312V24.348H60.664V28.356H68.704V31.5H56.92ZM79.1663 22.716L81.6623 18.876H85.3583L81.0383 24.948C81.9983 26.148 82.8703 27.316 83.6543 28.452C84.4383 29.588 85.0623 30.604 85.5263 31.5H81.6863C81.5583 31.26 81.3983 30.964 81.2063 30.612C81.0143 30.244 80.7983 29.868 80.5583 29.484C80.3183 29.084 80.0623 28.692 79.7903 28.308C79.5343 27.908 79.2783 27.548 79.0223 27.228C78.7823 27.532 78.5343 27.868 78.2783 28.236C78.0383 28.604 77.8063 28.98 77.5823 29.364C77.3583 29.732 77.1343 30.1 76.9103 30.468C76.7023 30.836 76.5183 31.18 76.3583 31.5H72.7103C72.9023 31.1 73.1663 30.628 73.5023 30.084C73.8383 29.54 74.1983 28.98 74.5823 28.404C74.9823 27.812 75.3983 27.228 75.8303 26.652C76.2623 26.06 76.6863 25.508 77.1023 24.996C76.3823 23.988 75.6623 22.972 74.9423 21.948C74.2223 20.908 73.5103 19.884 72.8063 18.876H76.6703L79.1663 22.716ZM97.9274 25.284C97.9274 24.18 97.6794 23.3 97.1834 22.644C96.6874 21.972 95.9514 21.636 94.9754 21.636C94.6554 21.636 94.3594 21.652 94.0874 21.684C93.8154 21.7 93.5914 21.724 93.4154 21.756V28.212C93.6394 28.356 93.9274 28.476 94.2794 28.572C94.6474 28.668 95.0154 28.716 95.3834 28.716C97.0794 28.716 97.9274 27.572 97.9274 25.284ZM101.575 25.188C101.575 26.164 101.455 27.052 101.215 27.852C100.975 28.652 100.623 29.34 100.159 29.916C99.6954 30.492 99.1194 30.94 98.4314 31.26C97.7434 31.58 96.9514 31.74 96.0554 31.74C95.5594 31.74 95.0954 31.692 94.6634 31.596C94.2314 31.5 93.8154 31.364 93.4154 31.188V35.94H89.8394V19.308C90.1594 19.212 90.5274 19.124 90.9434 19.044C91.3594 18.948 91.7914 18.868 92.2394 18.804C92.7034 18.74 93.1674 18.692 93.6314 18.66C94.1114 18.612 94.5674 18.588 94.9994 18.588C96.0394 18.588 96.9674 18.748 97.7834 19.068C98.5994 19.372 99.2874 19.812 99.8474 20.388C100.407 20.948 100.831 21.636 101.119 22.452C101.423 23.268 101.575 24.18 101.575 25.188ZM111.764 31.74C110.724 31.724 109.876 31.612 109.22 31.404C108.58 31.196 108.068 30.908 107.684 30.54C107.316 30.156 107.06 29.7 106.916 29.172C106.788 28.628 106.724 28.02 106.724 27.348V13.452L110.3 12.876V26.628C110.3 26.948 110.324 27.236 110.372 27.492C110.42 27.748 110.508 27.964 110.636 28.14C110.78 28.316 110.98 28.46 111.236 28.572C111.492 28.684 111.836 28.756 112.268 28.788L111.764 31.74ZM128.525 25.164C128.525 26.156 128.381 27.068 128.093 27.9C127.805 28.716 127.389 29.42 126.845 30.012C126.301 30.588 125.645 31.036 124.877 31.356C124.125 31.676 123.277 31.836 122.333 31.836C121.405 31.836 120.557 31.676 119.789 31.356C119.037 31.036 118.389 30.588 117.845 30.012C117.301 29.42 116.877 28.716 116.573 27.9C116.269 27.068 116.117 26.156 116.117 25.164C116.117 24.172 116.269 23.268 116.573 22.452C116.893 21.636 117.325 20.94 117.869 20.364C118.429 19.788 119.085 19.34 119.837 19.02C120.605 18.7 121.437 18.54 122.333 18.54C123.245 18.54 124.077 18.7 124.829 19.02C125.597 19.34 126.253 19.788 126.797 20.364C127.341 20.94 127.765 21.636 128.069 22.452C128.373 23.268 128.525 24.172 128.525 25.164ZM124.877 25.164C124.877 24.06 124.653 23.196 124.205 22.572C123.773 21.932 123.149 21.612 122.333 21.612C121.517 21.612 120.885 21.932 120.437 22.572C119.989 23.196 119.765 24.06 119.765 25.164C119.765 26.268 119.989 27.148 120.437 27.804C120.885 28.444 121.517 28.764 122.333 28.764C123.149 28.764 123.773 28.444 124.205 27.804C124.653 27.148 124.877 26.268 124.877 25.164ZM141.304 22.044C140.984 21.964 140.608 21.884 140.176 21.804C139.744 21.708 139.28 21.66 138.784 21.66C138.56 21.66 138.288 21.684 137.968 21.732C137.664 21.764 137.432 21.804 137.272 21.852V31.5H133.696V19.548C134.336 19.324 135.088 19.116 135.952 18.924C136.832 18.716 137.808 18.612 138.88 18.612C139.072 18.612 139.304 18.628 139.576 18.66C139.848 18.676 140.12 18.708 140.392 18.756C140.664 18.788 140.936 18.836 141.208 18.9C141.48 18.948 141.712 19.012 141.904 19.092L141.304 22.044ZM145.386 25.284C145.386 24.164 145.554 23.188 145.89 22.356C146.242 21.508 146.698 20.804 147.258 20.244C147.818 19.684 148.458 19.26 149.178 18.972C149.914 18.684 150.666 18.54 151.434 18.54C153.226 18.54 154.642 19.092 155.682 20.196C156.722 21.284 157.242 22.892 157.242 25.02C157.242 25.228 157.234 25.46 157.218 25.716C157.202 25.956 157.186 26.172 157.17 26.364H149.058C149.138 27.1 149.482 27.684 150.09 28.116C150.698 28.548 151.514 28.764 152.538 28.764C153.194 28.764 153.834 28.708 154.458 28.596C155.098 28.468 155.618 28.316 156.018 28.14L156.498 31.044C156.306 31.14 156.05 31.236 155.73 31.332C155.41 31.428 155.05 31.508 154.65 31.572C154.266 31.652 153.85 31.716 153.402 31.764C152.954 31.812 152.506 31.836 152.058 31.836C150.922 31.836 149.93 31.668 149.082 31.332C148.25 30.996 147.554 30.54 146.994 29.964C146.45 29.372 146.042 28.676 145.77 27.876C145.514 27.076 145.386 26.212 145.386 25.284ZM153.786 23.916C153.77 23.612 153.714 23.316 153.618 23.028C153.538 22.74 153.402 22.484 153.21 22.26C153.034 22.036 152.802 21.852 152.514 21.708C152.242 21.564 151.898 21.492 151.482 21.492C151.082 21.492 150.738 21.564 150.45 21.708C150.162 21.836 149.922 22.012 149.73 22.236C149.538 22.46 149.386 22.724 149.274 23.028C149.178 23.316 149.106 23.612 149.058 23.916H153.786ZM175.799 14.676C178.279 14.676 180.183 15.116 181.511 15.996C182.839 16.86 183.503 18.284 183.503 20.268C183.503 22.268 182.831 23.716 181.487 24.612C180.143 25.492 178.223 25.932 175.727 25.932H174.551V31.5H170.807V15.108C171.623 14.948 172.487 14.836 173.399 14.772C174.311 14.708 175.111 14.676 175.799 14.676ZM176.039 17.868C175.767 17.868 175.495 17.876 175.223 17.892C174.967 17.908 174.743 17.924 174.551 17.94V22.74H175.727C177.023 22.74 177.999 22.564 178.655 22.212C179.311 21.86 179.639 21.204 179.639 20.244C179.639 19.78 179.551 19.396 179.375 19.092C179.215 18.788 178.975 18.548 178.655 18.372C178.351 18.18 177.975 18.052 177.527 17.988C177.079 17.908 176.583 17.868 176.039 17.868ZM196.021 22.044C195.701 21.964 195.325 21.884 194.893 21.804C194.461 21.708 193.997 21.66 193.501 21.66C193.277 21.66 193.005 21.684 192.685 21.732C192.381 21.764 192.149 21.804 191.989 21.852V31.5H188.413V19.548C189.053 19.324 189.805 19.116 190.669 18.924C191.549 18.716 192.525 18.612 193.597 18.612C193.789 18.612 194.021 18.628 194.293 18.66C194.565 18.676 194.837 18.708 195.109 18.756C195.381 18.788 195.653 18.836 195.925 18.9C196.197 18.948 196.429 19.012 196.621 19.092L196.021 22.044ZM212.511 25.164C212.511 26.156 212.367 27.068 212.079 27.9C211.791 28.716 211.375 29.42 210.831 30.012C210.287 30.588 209.631 31.036 208.863 31.356C208.111 31.676 207.263 31.836 206.319 31.836C205.391 31.836 204.543 31.676 203.775 31.356C203.023 31.036 202.375 30.588 201.831 30.012C201.287 29.42 200.863 28.716 200.559 27.9C200.255 27.068 200.103 26.156 200.103 25.164C200.103 24.172 200.255 23.268 200.559 22.452C200.879 21.636 201.311 20.94 201.855 20.364C202.415 19.788 203.071 19.34 203.823 19.02C204.591 18.7 205.423 18.54 206.319 18.54C207.231 18.54 208.063 18.7 208.815 19.02C209.583 19.34 210.239 19.788 210.783 20.364C211.327 20.94 211.751 21.636 212.055 22.452C212.359 23.268 212.511 24.172 212.511 25.164ZM208.863 25.164C208.863 24.06 208.639 23.196 208.191 22.572C207.759 21.932 207.135 21.612 206.319 21.612C205.503 21.612 204.871 21.932 204.423 22.572C203.975 23.196 203.751 24.06 203.751 25.164C203.751 26.268 203.975 27.148 204.423 27.804C204.871 28.444 205.503 28.764 206.319 28.764C207.135 28.764 207.759 28.444 208.191 27.804C208.639 27.148 208.863 26.268 208.863 25.164ZM220.73 25.092C220.73 26.196 220.978 27.084 221.474 27.756C221.97 28.428 222.706 28.764 223.682 28.764C224.002 28.764 224.298 28.756 224.57 28.74C224.842 28.708 225.066 28.676 225.242 28.644V22.14C225.018 21.996 224.722 21.876 224.354 21.78C224.002 21.684 223.642 21.636 223.274 21.636C221.578 21.636 220.73 22.788 220.73 25.092ZM228.818 31.092C228.498 31.188 228.13 31.284 227.714 31.38C227.298 31.46 226.858 31.532 226.394 31.596C225.946 31.66 225.482 31.708 225.002 31.74C224.538 31.788 224.09 31.812 223.658 31.812C222.618 31.812 221.69 31.66 220.874 31.356C220.058 31.052 219.37 30.62 218.81 30.06C218.25 29.484 217.818 28.796 217.514 27.996C217.226 27.18 217.082 26.268 217.082 25.26C217.082 24.236 217.21 23.316 217.466 22.5C217.722 21.668 218.09 20.964 218.57 20.388C219.05 19.812 219.634 19.372 220.322 19.068C221.026 18.764 221.826 18.612 222.722 18.612C223.218 18.612 223.658 18.66 224.042 18.756C224.442 18.852 224.842 18.988 225.242 19.164V13.452L228.818 12.876V31.092ZM245.342 31.068C244.734 31.244 243.95 31.404 242.99 31.548C242.03 31.708 241.022 31.788 239.966 31.788C238.894 31.788 237.998 31.644 237.278 31.356C236.574 31.068 236.014 30.668 235.598 30.156C235.182 29.628 234.886 29.004 234.71 28.284C234.534 27.564 234.446 26.772 234.446 25.908V18.876H238.022V25.476C238.022 26.628 238.174 27.46 238.478 27.972C238.782 28.484 239.35 28.74 240.182 28.74C240.438 28.74 240.71 28.732 240.998 28.716C241.286 28.684 241.542 28.652 241.766 28.62V18.876H245.342V31.068ZM250.499 25.188C250.499 24.276 250.643 23.42 250.931 22.62C251.235 21.804 251.667 21.1 252.227 20.508C252.787 19.9 253.467 19.42 254.267 19.068C255.067 18.716 255.979 18.54 257.003 18.54C257.675 18.54 258.291 18.604 258.851 18.732C259.411 18.844 259.955 19.012 260.483 19.236L259.739 22.092C259.403 21.964 259.035 21.852 258.635 21.756C258.235 21.66 257.787 21.612 257.291 21.612C256.235 21.612 255.443 21.94 254.915 22.596C254.403 23.252 254.147 24.116 254.147 25.188C254.147 26.324 254.387 27.204 254.867 27.828C255.363 28.452 256.219 28.764 257.435 28.764C257.867 28.764 258.331 28.724 258.827 28.644C259.323 28.564 259.779 28.436 260.195 28.26L260.699 31.188C260.283 31.364 259.763 31.516 259.139 31.644C258.515 31.772 257.827 31.836 257.075 31.836C255.923 31.836 254.931 31.668 254.099 31.332C253.267 30.98 252.579 30.508 252.035 29.916C251.507 29.324 251.115 28.628 250.859 27.828C250.619 27.012 250.499 26.132 250.499 25.188ZM265.379 15.732L268.955 15.156V18.876H273.251V21.852H268.955V26.292C268.955 27.044 269.083 27.644 269.339 28.092C269.611 28.54 270.147 28.764 270.947 28.764C271.331 28.764 271.723 28.732 272.123 28.668C272.539 28.588 272.915 28.484 273.251 28.356L273.755 31.14C273.323 31.316 272.843 31.468 272.315 31.596C271.787 31.724 271.139 31.788 270.371 31.788C269.395 31.788 268.587 31.66 267.947 31.404C267.307 31.132 266.795 30.764 266.411 30.3C266.027 29.82 265.755 29.244 265.595 28.572C265.451 27.9 265.379 27.156 265.379 26.34V15.732ZM282.187 28.932C282.843 28.932 283.307 28.868 283.579 28.74C283.851 28.612 283.987 28.364 283.987 27.996C283.987 27.708 283.811 27.46 283.459 27.252C283.107 27.028 282.571 26.78 281.851 26.508C281.291 26.3 280.779 26.084 280.315 25.86C279.867 25.636 279.483 25.372 279.163 25.068C278.843 24.748 278.595 24.372 278.419 23.94C278.243 23.508 278.155 22.988 278.155 22.38C278.155 21.196 278.595 20.26 279.475 19.572C280.355 18.884 281.563 18.54 283.099 18.54C283.867 18.54 284.603 18.612 285.307 18.756C286.011 18.884 286.571 19.028 286.987 19.188L286.363 21.972C285.947 21.828 285.491 21.7 284.995 21.588C284.515 21.476 283.971 21.42 283.363 21.42C282.243 21.42 281.683 21.732 281.683 22.356C281.683 22.5 281.707 22.628 281.755 22.74C281.803 22.852 281.899 22.964 282.043 23.076C282.187 23.172 282.379 23.284 282.619 23.412C282.875 23.524 283.195 23.652 283.579 23.796C284.363 24.084 285.011 24.372 285.523 24.66C286.035 24.932 286.435 25.236 286.723 25.572C287.027 25.892 287.235 26.252 287.347 26.652C287.475 27.052 287.539 27.516 287.539 28.044C287.539 29.292 287.067 30.236 286.123 30.876C285.195 31.516 283.875 31.836 282.163 31.836C281.043 31.836 280.107 31.74 279.355 31.548C278.619 31.356 278.107 31.196 277.819 31.068L278.419 28.164C279.027 28.404 279.651 28.596 280.291 28.74C280.931 28.868 281.563 28.932 282.187 28.932Z" fill="#556B2F"/>
<defs>
<clipPath id="clip0_31_3243">
<rect width="25" height="25" fill="white" transform="translate(10 10)"/>
</clipPath>
</defs>
</svg>
